<?xml version="1.0" encoding="UTF-8" standalone="no"?>
<!DOCTYPE svg PUBLIC "-//W3C//DTD SVG 1.1//EN" "http://www.w3.org/Graphics/SVG/1.1/DTD/svg11.dtd">
<svg version="1.1" xmlns="http://www.w3.org/2000/svg" xmlns:xlink="http://www.w3.org/1999/xlink" preserveAspectRatio="xMidYMid meet" viewBox="0 0 640 640" width="640" height="640"><defs><path d="M451.23 269.07C451.23 195.83 391.35 136.58 317.88 137.6C246.8 138.59 188.91 196.78 188.27 267.86C188 298.3 198.07 326.37 215.18 348.77C244.09 386.64 260 432.83 262 480.43C262 480.43 262 480.43 262 480.43L377.5 480.43C377.5 480.42 377.5 480.42 377.5 480.42C379.5 432.68 395.71 386.51 424.58 348.44C441.31 326.38 451.23 298.89 451.23 269.07" id="a1068RcmUa"></path><path d="M298.4 472.77C326.57 472.33 339.28 472.3 345.24 472.58C346.35 455.44 352.55 383.95 380.6 344.38C367.03 348.22 343.99 352.38 321.81 345.48C299.63 352.38 276.61 348.22 263.03 344.38C291.19 384.1 297.33 455.98 298.4 472.77ZM291.67 479.97C291.57 477.91 291.52 476.76 291.51 476.53C291.47 475.54 286.66 377.48 249.82 339.47C249 338.62 244.89 334.39 237.5 326.77C247.26 330.95 252.68 333.28 253.77 333.75C254.12 333.89 289.28 348.71 320.71 338.39C320.78 338.37 321.15 338.25 321.81 338.03C322.48 338.25 322.85 338.37 322.92 338.39C354.42 348.73 389.51 333.9 389.86 333.75C390.95 333.28 396.39 330.94 406.17 326.73C398.75 334.37 394.63 338.62 393.81 339.47C356.94 377.49 352.16 475.54 352.12 476.53C351.41 476.51 345.74 476.39 345.03 476.37C345.03 478.4 346.63 479.6 347.73 479.77C344.77 479.32 313.89 479.62 295.11 479.92C294.88 479.92 293.73 479.94 291.67 479.97" id="n7lwkcH4xp"></path><path d="M370.19 599.57C370.19 621.9 347.61 640 319.75 640C291.9 640 269.32 621.9 269.32 599.57C269.32 577.25 291.9 559.14 319.75 559.14C347.61 559.14 370.19 577.25 370.19 599.57" id="dDNbIqfiw"></path><path d="M366.12 599.58C310.48 599.58 279.56 599.58 273.38 599.58C267.56 599.58 262.74 595.05 262.39 589.23C261.96 581.98 259.8 545.71 255.92 480.43L383.58 480.43C379.7 545.71 377.54 581.98 377.11 589.23C376.76 595.05 371.95 599.58 366.12 599.58" id="jlScmgQeb"></path><path d="M265.98 607.32C261.87 607.32 258.26 604.34 257.58 600.16C256.84 595.52 260 591.15 264.64 590.41C275.81 588.62 365.17 574.3 376.34 572.51C380.99 571.78 385.35 574.93 386.09 579.57C386.83 584.21 383.68 588.58 379.03 589.32C367.86 591.11 278.51 605.43 267.34 607.21C266.88 607.29 266.43 607.32 265.98 607.32" id="bXeRbIMKL"></path><path d="M260.18 577.53C256.07 577.53 252.46 574.55 251.79 570.37C251.04 565.73 254.2 561.36 258.84 560.62C271.17 558.64 369.81 542.84 382.14 540.86C386.79 540.12 391.14 543.28 391.89 547.92C392.63 552.56 389.47 556.93 384.83 557.67C372.5 559.65 273.86 575.45 261.54 577.42C261.08 577.5 260.63 577.53 260.18 577.53" id="l1SM3ZTRnk"></path><path d="M260.18 546.22C256.07 546.22 252.46 543.24 251.79 539.06C251.04 534.42 254.2 530.05 258.84 529.31C271.69 527.25 374.47 510.79 387.32 508.73C391.96 507.99 396.33 511.14 397.07 515.78C397.81 520.43 394.65 524.79 390.01 525.53C377.17 527.59 274.38 544.06 261.53 546.12C261.08 546.19 260.63 546.22 260.18 546.22" id="a5H5fNFKCo"></path><path d="M257.59 518.03C253.48 518.03 249.87 515.05 249.19 510.87C248.45 506.22 251.61 501.86 256.25 501.12C269.1 499.06 371.88 482.59 384.73 480.53C389.37 479.8 393.74 482.95 394.48 487.59C395.22 492.23 392.06 496.6 387.42 497.34C374.57 499.4 271.79 515.86 258.94 517.92C258.49 518 258.03 518.03 257.59 518.03" id="h1tnNgg1t3"></path><path d="M315.55 85.93C313.23 85.93 311.35 84.05 311.35 81.73C311.35 73.98 311.35 11.95 311.35 4.2C311.35 1.88 313.23 0 315.55 0C317.87 0 319.75 1.88 319.75 4.2C319.75 11.95 319.75 73.98 319.75 81.73C319.75 84.05 317.87 85.93 315.55 85.93" id="a6TqXPbHT"></path><path d="M431.85 120.16C431.14 120.16 430.42 119.98 429.75 119.6C427.74 118.44 427.06 115.87 428.21 113.86C432.09 107.14 463.1 53.43 466.98 46.72C468.14 44.7 470.7 44.02 472.72 45.18C474.73 46.34 475.41 48.91 474.26 50.92C470.38 57.63 439.37 111.34 435.49 118.06C434.72 119.41 433.3 120.16 431.85 120.16" id="c1cFMuU9JY"></path><path d="M499.1 197.55C497.64 197.55 496.23 196.79 495.45 195.44C494.29 193.43 494.98 190.86 496.99 189.7C503.7 185.83 557.41 154.82 564.13 150.94C566.14 149.79 568.71 150.47 569.87 152.48C571.03 154.49 570.34 157.06 568.33 158.22C561.61 162.1 507.91 193.1 501.19 196.98C500.53 197.36 499.81 197.55 499.1 197.55" id="b1il50EAA8"></path><path d="M591.56 301.26C545.05 301.26 519.2 301.26 514.04 301.26C511.71 301.26 509.83 299.38 509.83 297.06C509.83 294.74 511.71 292.86 514.04 292.86C521.79 292.86 583.81 292.86 591.56 292.86C593.88 292.86 595.76 294.74 595.76 297.06C595.76 299.38 593.88 301.26 591.56 301.26" id="fftB2YOxE"></path><path d="M566.22 435.13C565.51 435.13 564.79 434.94 564.13 434.56C557.41 430.69 503.7 399.68 496.99 395.8C494.98 394.64 494.29 392.07 495.45 390.06C496.62 388.05 499.18 387.36 501.19 388.52C507.91 392.4 561.61 423.41 568.33 427.28C570.34 428.44 571.03 431.02 569.87 433.03C569.09 434.38 567.68 435.13 566.22 435.13" id="aAZXPM3z"></path><path d="M207.65 120.16C206.2 120.16 204.79 119.41 204.01 118.06C200.13 111.34 169.12 57.63 165.25 50.92C164.09 48.91 164.78 46.34 166.78 45.18C168.8 44.03 171.36 44.71 172.52 46.72C176.4 53.43 207.41 107.14 211.29 113.86C212.45 115.87 211.76 118.44 209.75 119.6C209.09 119.98 208.37 120.16 207.65 120.16" id="iaRfh0fTs"></path><path d="M146.92 197.55C146.21 197.55 145.49 197.36 144.83 196.98C138.11 193.1 84.4 162.1 77.69 158.22C75.68 157.06 74.99 154.49 76.15 152.48C77.31 150.47 79.88 149.78 81.89 150.94C88.61 154.82 142.32 185.83 149.03 189.7C151.04 190.86 151.73 193.43 150.57 195.44C149.79 196.79 148.38 197.55 146.92 197.55" id="d1NNXUtKy6"></path><path d="M125.97 301.26C79.45 301.26 53.61 301.26 48.44 301.26C46.12 301.26 44.24 299.38 44.24 297.06C44.24 294.74 46.12 292.86 48.44 292.86C56.19 292.86 118.22 292.86 125.97 292.86C128.29 292.86 130.17 294.74 130.17 297.06C130.17 299.38 128.29 301.26 125.97 301.26" id="cNCbrO27v"></path><path d="M79.79 435.12C78.34 435.12 76.93 434.37 76.15 433.02C74.99 431.01 75.68 428.44 77.69 427.28C84.4 423.4 138.11 392.39 144.83 388.52C146.84 387.36 149.4 388.05 150.57 390.06C151.73 392.06 151.04 394.64 149.03 395.8C142.32 399.67 88.61 430.68 81.89 434.56C81.23 434.94 80.51 435.12 79.79 435.12" id="a2Aq3gmzJQ"></path></defs><g><g><g><use xlink:href="#a1068RcmUa" opacity="1" fill="#fbcc5d" fill-opacity="1"></use><g><use xlink:href="#a1068RcmUa" opacity="1" fill-opacity="0" stroke="#000000" stroke-width="1" stroke-opacity="0"></use></g></g><g><use xlink:href="#n7lwkcH4xp" opacity="1" fill="#fde79c" fill-opacity="1"></use><g><use xlink:href="#n7lwkcH4xp" opacity="1" fill-opacity="0" stroke="#000000" stroke-width="1" stroke-opacity="0"></use></g></g><g><use xlink:href="#dDNbIqfiw" opacity="1" fill="#5781c9" fill-opacity="1"></use><g><use xlink:href="#dDNbIqfiw" opacity="1" fill-opacity="0" stroke="#000000" stroke-width="1" stroke-opacity="0"></use></g></g><g><use xlink:href="#jlScmgQeb" opacity="1" fill="#3153a6" fill-opacity="1"></use><g><use xlink:href="#jlScmgQeb" opacity="1" fill-opacity="0" stroke="#000000" stroke-width="1" stroke-opacity="0"></use></g></g><g><use xlink:href="#bXeRbIMKL" opacity="1" fill="#5781c9" fill-opacity="1"></use><g><use xlink:href="#bXeRbIMKL" opacity="1" fill-opacity="0" stroke="#000000" stroke-width="1" stroke-opacity="0"></use></g></g><g><use xlink:href="#l1SM3ZTRnk" opacity="1" fill="#5781c9" fill-opacity="1"></use><g><use xlink:href="#l1SM3ZTRnk" opacity="1" fill-opacity="0" stroke="#000000" stroke-width="1" stroke-opacity="0"></use></g></g><g><use xlink:href="#a5H5fNFKCo" opacity="1" fill="#5781c9" fill-opacity="1"></use><g><use xlink:href="#a5H5fNFKCo" opacity="1" fill-opacity="0" stroke="#000000" stroke-width="1" stroke-opacity="0"></use></g></g><g><use xlink:href="#h1tnNgg1t3" opacity="1" fill="#5781c9" fill-opacity="1"></use><g><use xlink:href="#h1tnNgg1t3" opacity="1" fill-opacity="0" stroke="#000000" stroke-width="1" stroke-opacity="0"></use></g></g><g><use xlink:href="#a6TqXPbHT" opacity="1" fill="#fbcc5d" fill-opacity="1"></use><g><use xlink:href="#a6TqXPbHT" opacity="1" fill-opacity="0" stroke="#000000" stroke-width="1" stroke-opacity="0"></use></g></g><g><use xlink:href="#c1cFMuU9JY" opacity="1" fill="#fbcc5d" fill-opacity="1"></use><g><use xlink:href="#c1cFMuU9JY" opacity="1" fill-opacity="0" stroke="#000000" stroke-width="1" stroke-opacity="0"></use></g></g><g><use xlink:href="#b1il50EAA8" opacity="1" fill="#fbcc5d" fill-opacity="1"></use><g><use xlink:href="#b1il50EAA8" opacity="1" fill-opacity="0" stroke="#000000" stroke-width="1" stroke-opacity="0"></use></g></g><g><use xlink:href="#fftB2YOxE" opacity="1" fill="#fbcc5d" fill-opacity="1"></use><g><use xlink:href="#fftB2YOxE" opacity="1" fill-opacity="0" stroke="#000000" stroke-width="1" stroke-opacity="0"></use></g></g><g><use xlink:href="#aAZXPM3z" opacity="1" fill="#fbcc5d" fill-opacity="1"></use><g><use xlink:href="#aAZXPM3z" opacity="1" fill-opacity="0" stroke="#000000" stroke-width="1" stroke-opacity="0"></use></g></g><g><use xlink:href="#iaRfh0fTs" opacity="1" fill="#fbcc5d" fill-opacity="1"></use><g><use xlink:href="#iaRfh0fTs" opacity="1" fill-opacity="0" stroke="#000000" stroke-width="1" stroke-opacity="0"></use></g></g><g><use xlink:href="#d1NNXUtKy6" opacity="1" fill="#fbcc5d" fill-opacity="1"></use><g><use xlink:href="#d1NNXUtKy6" opacity="1" fill-opacity="0" stroke="#000000" stroke-width="1" stroke-opacity="0"></use></g></g><g><use xlink:href="#cNCbrO27v" opacity="1" fill="#fbcc5d" fill-opacity="1"></use><g><use xlink:href="#cNCbrO27v" opacity="1" fill-opacity="0" stroke="#000000" stroke-width="1" stroke-opacity="0"></use></g></g><g><use xlink:href="#a2Aq3gmzJQ" opacity="1" fill="#fbcc5d" fill-opacity="1"></use><g><use xlink:href="#a2Aq3gmzJQ" opacity="1" fill-opacity="0" stroke="#000000" stroke-width="1" stroke-opacity="0"></use></g></g></g></g></svg>